<?xml version="1.0" encoding="UTF-8"?>
<svg id="_x34_5_-_Camera" xmlns="http://www.w3.org/2000/svg" version="1.1" viewBox="0 0 512 512">
  <!-- Generator: Adobe Illustrator 29.2.1, SVG Export Plug-In . SVG Version: 2.1.0 Build 116)  -->
  <defs>
    <style>
      .st0 {
        fill: #c4174f;
      }
    </style>
  </defs>
  <path class="st0" d="M488.4,128h-112l-26.1-69.7c-1.4-3.7-4.9-6.2-8.9-6.2h-170.7c-4,0-7.5,2.5-8.9,6.2l-26.1,69.7h-26.6v-28.5c0-5.2-4.2-9.5-9.5-9.5h-56.9c-5.2,0-9.5,4.2-9.5,9.5v28.5h-9.5c-5.2,0-9.5,4.2-9.5,9.5v313c0,5.2,4.2,9.5,9.5,9.5h464.8c5.2,0,9.5-4.2,9.5-9.5V137.4c0-5.2-4.2-9.5-9.5-9.5ZM33.1,222.8h128.1c-14.9,19.8-23.8,44.5-23.8,71.1s8.9,51.3,23.8,71.1H33.1v-142.3ZM156.4,293.9c0-54.9,44.7-99.6,99.6-99.6s99.6,44.7,99.6,99.6-44.7,99.6-99.6,99.6-99.6-44.7-99.6-99.6ZM374.6,293.9c0-26.7-8.9-51.3-23.8-71.1h128.1v142.3h-128.1c14.9-19.8,23.8-44.5,23.8-71.1ZM177.2,71h157.6l21.3,56.9h-200.3l21.3-56.9ZM52.1,109h37.9v19h-37.9v-19ZM42.6,146.9h436.3v56.9h-145.9c-20.7-17.7-47.6-28.5-77-28.5s-56.2,10.7-77,28.5H33.1v-56.9h9.5ZM33.1,441v-56.9h145.9c20.7,17.7,47.6,28.5,77,28.5s56.2-10.7,77-28.5h145.9v56.9H33.1Z"/>
  <path class="st0" d="M336.6,293.9c0-44.5-36.2-80.6-80.6-80.6s-80.6,36.2-80.6,80.6,36.2,80.6,80.6,80.6,80.6-36.2,80.6-80.6ZM194.3,293.9c0-34,27.7-61.7,61.7-61.7s61.7,27.7,61.7,61.7-27.7,61.7-61.7,61.7-61.7-27.7-61.7-61.7Z"/>
  <path class="st0" d="M422,184.9h28.5c5.2,0,9.5-4.2,9.5-9.5s-4.2-9.5-9.5-9.5h-28.5c-5.2,0-9.5,4.2-9.5,9.5s4.2,9.5,9.5,9.5Z"/>
  <path class="st0" d="M293.9,90h-75.9c-5.2,0-9.5,4.2-9.5,9.5s4.2,9.5,9.5,9.5h75.9c5.2,0,9.5-4.2,9.5-9.5s-4.2-9.5-9.5-9.5Z"/>
</svg>