<svg width="58" height="67" viewBox="0 0 58 67" fill="none" xmlns="http://www.w3.org/2000/svg">
<g id="Group">
<g id="Group_2">
<path id="Vector" d="M57.4629 48.5119C57.4624 48.5116 57.462 48.5115 57.4616 48.5112C55.0696 47.1283 54.2476 44.0582 55.6297 41.666C56.5853 40.0081 56.8388 38.0787 56.3437 36.2328C56.0477 35.1329 55.5095 34.1427 54.7688 33.317C56.7765 31.0564 57.1784 27.6639 55.6249 24.9644C54.9582 23.8073 54.7813 22.4595 55.127 21.1697C55.4747 19.8753 56.3043 18.7944 57.4629 18.1253C57.9765 17.8288 58.1525 17.172 57.856 16.6584C57.5595 16.1447 56.9025 15.9689 56.3891 16.2654C56.3876 16.2663 56.3861 16.2671 56.3846 16.268C53.9923 17.6459 50.9246 16.8232 49.5442 14.4323C48.5874 12.7752 47.0434 11.5906 45.197 11.0972C44.0983 10.8028 42.971 10.7731 41.8816 11.0022C40.9289 8.1323 38.1925 6.08757 35.0786 6.08406C33.7411 6.08185 32.4846 5.56071 31.5413 4.61748C30.5952 3.66905 30.0739 2.41046 30.0738 1.07377C30.0738 0.480659 29.5928 0 28.9999 0C28.4067 0 27.9261 0.48079 27.926 1.0739C27.926 2.41189 27.405 3.67009 26.4586 4.61631C25.5121 5.56279 24.254 6.08393 22.9149 6.08393C21.0025 6.08484 19.2043 6.82919 17.8516 8.1811C17.0473 8.98715 16.4587 9.94886 16.1137 11.0044C13.1519 10.3948 10.0136 11.7423 8.45346 14.4375C7.78316 15.5944 6.70392 16.4217 5.41449 16.7669C4.11984 17.1132 2.76936 16.9357 1.61112 16.2669C1.61099 16.2669 1.61125 16.2671 1.61112 16.2669C1.09766 15.9707 0.440512 16.1464 0.14402 16.66C-0.152341 17.1736 0.0234975 17.8302 0.537086 18.1267C0.538388 18.1274 0.539689 18.1281 0.540991 18.1291C1.69819 18.7978 2.52584 19.8772 2.87179 21.1688C3.21813 22.4616 3.0406 23.8122 2.372 24.971C1.41498 26.627 1.16092 28.5561 1.65667 30.404C1.95277 31.5046 2.49096 32.4955 3.23141 33.3218C1.22417 35.5821 0.822254 38.9738 2.37486 41.672C3.04086 42.8298 3.21748 44.179 2.87283 45.4686C2.52415 46.7627 1.69468 47.8434 0.537086 48.5117C0.0234975 48.8082 -0.152471 49.465 0.14402 49.9786C0.440512 50.4923 1.09753 50.6683 1.61086 50.3716L1.61242 50.3707C2.77118 49.7024 4.12114 49.5249 5.41344 49.8712C6.70653 50.2175 7.7872 51.0467 8.45632 52.2059C9.41178 53.8609 10.955 55.0456 12.8031 55.542C13.4194 55.7065 14.044 55.7885 14.6661 55.7885C15.1538 55.7885 15.6394 55.7362 16.1178 55.6359C17.0714 58.5048 19.808 60.5494 22.9226 60.5543C24.2573 60.5554 25.5129 61.0764 26.4576 62.0208C27.4039 62.9682 27.9252 64.2269 27.9252 65.5653C27.9252 66.1584 28.406 66.6391 28.9991 66.6391C29.5922 66.6391 30.073 66.1584 30.073 65.5652C30.0731 62.8012 32.3187 60.5522 35.0851 60.5537C36.9959 60.5537 38.7931 59.8094 40.1459 58.4575C40.9505 57.6529 41.5396 56.6917 41.8857 55.6335C44.848 56.2432 47.9868 54.8957 49.5468 52.2011C50.2171 51.0441 51.2963 50.2169 52.5855 49.8717C53.8795 49.5259 55.2297 49.7036 56.3878 50.3724C56.9014 50.669 57.558 50.4931 57.8549 49.9796C58.1522 49.4652 57.9764 48.8085 57.4629 48.5119ZM53.7637 26.0359C54.8668 27.953 54.5645 30.3672 53.1102 31.9495C53.0762 31.9292 53.0427 31.9081 53.0085 31.8883L46.1607 27.9341C45.1117 27.3284 43.9873 26.8753 42.8242 26.5768L53.0362 20.6809C52.5662 22.5042 52.8229 24.4031 53.7637 26.0359ZM42.2432 21.1486L42.2433 13.2438C42.2433 13.2032 42.2419 13.1625 42.2412 13.1219C43.0283 12.9433 43.8453 12.9582 44.6419 13.1716C45.9341 13.5169 47.0146 14.346 47.6843 15.5059C48.6589 17.1942 50.2229 18.3334 51.9675 18.818L41.7554 24.7138C42.0776 23.5587 42.2433 22.3587 42.2432 21.1486ZM30.0743 6.18467C31.417 7.50131 33.1897 8.22848 35.0759 8.23147C37.2868 8.23408 39.2249 9.70222 39.8679 11.7547C39.8335 11.7738 39.7989 11.7921 39.7648 11.8119L32.9175 15.7652C31.8681 16.3709 30.9138 17.118 30.0742 17.9752L30.0743 6.18467ZM29.9309 21.6807C30.8979 20.0028 32.3021 18.6002 33.9915 17.6248L40.0958 14.1005L40.0956 21.1488C40.0959 23.0981 39.5827 25.0156 38.612 26.6944C38.5494 26.8027 38.5093 26.9194 38.4875 27.0388C36.5674 24.148 33.3635 22.1822 29.6957 21.9603C29.7877 21.8818 29.8686 21.7889 29.9309 21.6807ZM19.3712 9.69896C20.3177 8.75313 21.5765 8.23186 22.9152 8.23134C22.915 8.23134 22.9153 8.23134 22.9152 8.23134C24.8036 8.23134 26.5802 7.50404 27.9262 6.1835V17.9746C27.0863 17.1171 26.132 16.3699 25.0829 15.7645L18.2382 11.8131C18.2024 11.7922 18.1661 11.773 18.1299 11.7529C18.3677 10.9832 18.7885 10.2828 19.3712 9.69896ZM17.905 14.1003L24.0095 17.6247C25.6978 18.599 27.102 20.0017 28.0699 21.6811C28.1323 21.7892 28.2131 21.8819 28.3051 21.9604C24.6364 22.183 21.4323 24.15 19.5127 27.0419C19.4911 26.9212 19.4507 26.8032 19.3873 26.6938C18.417 25.0159 17.9043 23.0986 17.9047 21.149L17.905 14.1003ZM10.3124 15.5133C11.4198 13.6003 13.6594 12.6555 15.7594 13.1248C15.7589 13.1639 15.7575 13.2035 15.7575 13.2425L15.7573 21.1486C15.7571 22.3587 15.9227 23.5586 16.2447 24.7136L6.03753 18.8212C7.85019 18.3174 9.36688 17.1457 10.3124 15.5133ZM4.23243 26.0445C5.17617 24.409 5.43388 22.5072 4.96363 20.6814L15.1758 26.5766C14.0138 26.8753 12.8898 27.3281 11.8403 27.934L4.99188 31.8879C4.95712 31.908 4.92328 31.9293 4.88892 31.9499C4.34162 31.3595 3.94596 30.6443 3.73133 29.8462C3.3846 28.5538 3.56226 27.2038 4.23243 26.0445ZM4.96428 45.9552C5.43258 44.1323 5.17617 42.2335 4.23698 40.6003C3.13418 38.6839 3.4364 36.2706 4.89009 34.6888C4.92407 34.7091 4.95751 34.7304 4.99188 34.75L11.8399 38.7021C12.889 39.3081 14.0134 39.7609 15.1763 40.0595L4.96428 45.9552ZM15.7575 45.4873L15.7569 53.3941C15.7569 53.4347 15.7584 53.4753 15.7591 53.5159C14.9728 53.6943 14.1558 53.6795 13.3597 53.4668C12.0667 53.1194 10.9863 52.29 10.3173 51.1313C9.373 49.4956 7.85449 48.3213 6.0374 47.8157L16.2454 41.9221C15.923 43.0775 15.7573 44.2773 15.7575 45.4873ZM12.9137 36.8422L6.80883 33.319L12.9141 29.794C14.6012 28.8199 16.5146 28.3053 18.4487 28.3053C18.4516 28.3053 18.4548 28.3053 18.458 28.3053C18.5835 28.3053 18.7049 28.2813 18.8195 28.2405C18.0531 29.7706 17.6192 31.4947 17.6192 33.3192C17.6192 35.142 18.0523 36.865 18.8175 38.3941C18.704 38.3538 18.5837 38.3303 18.4596 38.3303C18.4569 38.3304 18.4535 38.3303 18.4502 38.3303C16.5138 38.3303 14.5996 37.8158 12.9137 36.8422ZM27.9263 60.4535C26.5819 59.1349 24.8093 58.4076 22.9258 58.4061C20.7152 58.4027 18.7762 56.9345 18.1325 54.8833C18.1667 54.8643 18.2012 54.8461 18.2352 54.8264L25.0837 50.8725C26.1328 50.2667 27.0872 49.5196 27.927 48.6626L27.9263 60.4535ZM28.0706 44.9566C27.1035 46.6346 25.6993 48.0371 24.0098 49.0126L17.9045 52.5374L17.905 45.4872C17.9047 43.5379 18.4178 41.6203 19.3886 39.9416C19.4512 39.8333 19.4913 39.7166 19.5132 39.5972C21.4328 42.4886 24.6367 44.4553 28.3048 44.6779C28.2131 44.7563 28.1326 44.8489 28.0706 44.9566ZM19.7667 33.3191C19.7667 28.2273 23.9093 24.0848 29.001 24.0848C34.0928 24.0848 38.2353 28.2273 38.2353 33.3191C38.2353 38.4109 34.0928 42.5534 29.001 42.5534C23.9093 42.5534 19.7667 38.4109 19.7667 33.3191ZM38.6282 56.9382C37.6813 57.8845 36.4233 58.4055 35.0856 58.4055C35.0852 58.4055 35.0846 58.4055 35.084 58.4055C33.1347 58.4057 31.3663 59.1905 30.0742 60.4592L30.0748 48.6623C30.9144 49.5194 31.8686 50.2662 32.9174 50.8716L39.7666 54.8267C39.8008 54.8463 39.8361 54.8649 39.8707 54.8841C39.6325 55.6547 39.2114 56.3548 38.6282 56.9382ZM33.9911 49.0114C32.3028 48.0371 30.8988 46.6349 29.9314 44.9563C29.8693 44.8487 29.7887 44.756 29.697 44.6777C33.3652 44.4551 36.5691 42.4882 38.4888 39.5967C38.5105 39.7168 38.5507 39.8344 38.6137 39.9433C39.5836 41.6203 40.096 43.5372 40.0956 45.4869L40.096 52.5365L33.9911 49.0114ZM39.5532 38.3321C39.5502 38.3321 39.5469 38.3321 39.5435 38.3321C39.4187 38.3321 39.2975 38.3559 39.1834 38.3965C39.9492 36.8668 40.383 35.1431 40.383 33.3191C40.383 31.4954 39.9495 29.7719 39.1838 28.2423C39.2971 28.2825 39.4173 28.3058 39.5414 28.3058C39.5456 28.3059 39.5474 28.3058 39.5504 28.3058C41.4869 28.3058 43.4012 28.8203 45.0868 29.7937L51.1917 33.319L45.0874 36.8433C43.4001 37.8176 41.4869 38.3321 39.5532 38.3321ZM47.6891 51.1242C46.581 53.0382 44.3387 53.9826 42.2419 53.5132C42.2425 53.4736 42.2442 53.4342 42.2442 53.3946L42.2437 45.4873C42.244 44.2775 42.0785 43.0782 41.7568 41.9237L51.9631 47.8163C50.1506 48.3207 48.6344 49.4922 47.6891 51.1242ZM53.7694 40.5922C52.7939 42.2806 52.5891 44.2053 53.0421 45.9593L42.8255 40.0609C43.9876 39.7622 45.1118 39.3093 46.1612 38.7034L53.0085 34.7501C53.0434 34.73 53.0774 34.7086 53.1118 34.6878C53.6593 35.2779 54.0551 35.9926 54.2696 36.7896C54.6159 38.0813 54.4382 39.432 53.7694 40.5922Z" fill="#C4174F"/>
</g>
</g>
</svg>
