<svg width="65" height="65" viewBox="0 0 65 65" fill="none" xmlns="http://www.w3.org/2000/svg">
<g id="dermis-icon" clip-path="url(#clip0_383_3046)">
<g id="Group">
<path id="Vector" d="M32.3851 51.8338C31.8575 51.8234 31.3717 51.7609 30.9277 51.662C28.9636 51.2088 27.7308 49.964 27.0047 48.3338C26.3309 46.8182 26.1167 44.9745 26.1533 43.1672C26.1898 41.4067 26.4667 39.6776 26.7801 38.3182C27.3025 36.0682 28.0547 33.912 29.0002 31.8234C29.9456 29.7453 31.0844 27.7349 32.3746 25.787C32.3903 25.7661 32.406 25.7401 32.4216 25.7192C36.2715 20.7192 40.863 16.0109 46.0397 11.714C51.2163 7.41716 56.978 3.54737 63.1575 0.224451C63.6015 -0.00992395 64.15 0.151534 64.3851 0.594243C64.6201 1.02653 64.4634 1.56299 64.0403 1.80778C60.6032 3.97966 57.2183 6.51612 54.0632 9.34424C51.0805 12.0213 48.3172 14.9484 45.9352 18.063C42.8115 22.1411 41.0772 25.1047 40.1213 27.9172C39.1706 30.714 38.9721 33.412 38.9199 36.938C38.9094 37.5838 38.9355 38.3547 38.9616 39.1828C38.993 40.2505 39.0295 41.4172 39.0034 42.5995C38.9094 47.2505 37.8803 51.9536 32.3851 51.8338ZM5.51469 32.8651C6.18332 32.8651 6.72658 33.4067 6.72658 34.0734C6.72658 34.7401 6.18332 35.2817 5.51469 35.2817C4.84607 35.2817 4.30281 34.7401 4.30281 34.0734C4.30281 33.4067 4.84607 32.8651 5.51469 32.8651ZM59.4122 32.9536C60.0808 32.9536 60.6241 33.4953 60.6241 34.162C60.6241 34.8286 60.0808 35.3703 59.4122 35.3703C58.7436 35.3703 58.2003 34.8286 58.2003 34.162C58.2003 33.4953 58.7436 32.9536 59.4122 32.9536ZM52.7782 33.438C53.4468 33.438 53.99 33.9797 53.99 34.6463C53.99 35.313 53.4468 35.8547 52.7782 35.8547C52.1095 35.8547 51.5663 35.313 51.5663 34.6463C51.5663 33.9797 52.1095 33.438 52.7782 33.438ZM55.2855 36.7453C55.9541 36.7453 56.4974 37.287 56.4974 37.9536C56.4974 38.6203 55.9541 39.162 55.2855 39.162C54.6169 39.162 54.0736 38.6203 54.0736 37.9536C54.0736 37.287 54.6169 36.7453 55.2855 36.7453ZM49.3044 36.3442C49.9731 36.3442 50.5163 36.8859 50.5163 37.5526C50.5163 38.2192 49.9731 38.7609 49.3044 38.7609C48.6358 38.7609 48.0926 38.2192 48.0926 37.5526C48.0873 36.8859 48.6306 36.3442 49.3044 36.3442ZM46.1494 33.1151C46.818 33.1151 47.3612 33.6567 47.3612 34.3234C47.3612 34.9901 46.818 35.5317 46.1494 35.5317C45.4807 35.5317 44.9375 34.9901 44.9375 34.3234C44.9323 33.6567 45.4755 33.1151 46.1494 33.1151ZM18.7827 32.7036C19.4514 32.7036 19.9946 33.2453 19.9946 33.912C19.9946 34.5786 19.4514 35.1203 18.7827 35.1203C18.1141 35.1203 17.5708 34.5786 17.5708 33.912C17.5656 33.2453 18.1089 32.7036 18.7827 32.7036ZM12.1487 33.188C12.8173 33.188 13.3606 33.7297 13.3606 34.3963C13.3606 35.063 12.8173 35.6047 12.1487 35.6047C11.4801 35.6047 10.9368 35.063 10.9368 34.3963C10.9368 33.7297 11.4801 33.188 12.1487 33.188ZM14.6561 36.4901C15.3247 36.4901 15.8679 37.0317 15.8679 37.6984C15.8679 38.3651 15.3247 38.9067 14.6561 38.9067C13.9874 38.9067 13.4442 38.3651 13.4442 37.6984C13.4442 37.0317 13.9874 36.4901 14.6561 36.4901ZM8.66977 36.089C9.33839 36.089 9.88165 36.6307 9.88165 37.2974C9.88165 37.964 9.33839 38.5057 8.66977 38.5057C8.00114 38.5057 7.45788 37.964 7.45788 37.2974C7.45788 36.6307 8.00114 36.089 8.66977 36.089ZM64.4948 31.3442V60.8859C64.4948 61.7765 64.1291 62.5786 63.5441 63.1672C62.959 63.7505 62.1494 64.1151 61.2561 64.1151H3.73866C2.85064 64.1151 2.04097 63.7505 1.4507 63.1672C0.865655 62.5838 0.5 61.7765 0.5 60.8859V31.3442C0.5 30.4536 0.865655 29.6463 1.4507 29.063C2.03575 28.4797 2.84541 28.1151 3.73866 28.1151C3.86925 28.1151 3.98939 28.1411 4.09909 28.188C7.53624 29.537 11.0465 30.1047 14.609 30.0474C18.2029 29.9901 21.8699 29.3026 25.5891 28.1515C26.0697 28.0057 26.5764 28.2713 26.7227 28.7505C26.7853 28.9484 26.7749 29.1515 26.707 29.3338C25.2653 33.1411 24.2519 36.6203 23.7713 39.714C23.3064 42.7453 23.3534 45.3807 24.0116 47.5526C24.9466 50.6203 26.9682 52.6567 29.3188 53.6203C30.6874 54.1828 32.1709 54.3807 33.6179 54.2036C35.0596 54.0317 36.4595 53.4849 37.6714 52.5578C39.7765 50.9484 41.3227 48.1724 41.5264 44.1776C41.5839 43.063 41.5317 41.9015 41.4742 40.6099C41.4324 39.6463 41.3854 38.6151 41.3802 37.4328C41.3802 37.037 41.3645 36.5995 41.3488 36.1567C41.3332 35.7036 41.3175 35.2453 41.3175 34.7401C41.2966 30.7974 42.3727 28.9067 44.1696 28.188C45.8725 27.5057 48.0664 28.0161 50.532 28.813C51.5611 29.1463 52.3446 29.464 52.9976 29.7297C54.7684 30.4536 55.3325 30.6828 58.5189 29.3026C58.6495 29.2453 58.7331 29.2088 58.8219 29.1724C59.689 28.787 60.8748 28.2609 61.9561 28.2609C63.3769 28.2713 64.4948 28.9849 64.4948 31.3442ZM62.677 60.8859V31.3442C62.677 30.3755 62.3583 30.0838 61.9561 30.0838C61.2509 30.0838 60.2741 30.5161 59.5637 30.8338C59.4331 30.8911 59.3129 30.9484 59.2502 30.9745C55.3639 32.6567 54.6326 32.3599 52.3237 31.4172C51.7178 31.1724 50.9865 30.8703 49.9887 30.5474C47.8732 29.8651 46.0344 29.412 44.8539 29.8807C43.7674 30.313 43.1197 31.6984 43.1353 34.7453C43.1353 35.188 43.151 35.6515 43.1667 36.1099C43.1823 36.5474 43.1928 36.9797 43.198 37.4328C43.2032 38.537 43.2502 39.5734 43.292 40.5422C43.3495 41.8807 43.4017 43.0838 43.3443 44.2765C43.1092 48.8651 41.2809 52.0942 38.7788 54.0057C37.3005 55.1359 35.5924 55.7974 33.8373 56.0109C32.0926 56.2192 30.2956 55.9797 28.6345 55.3026C25.8137 54.1463 23.39 51.7192 22.2826 48.0838C21.5356 45.6307 21.4729 42.7297 21.9744 39.4484C22.3975 36.6984 23.228 33.662 24.3877 30.3859C21.1072 31.2765 17.8529 31.8026 14.6299 31.8547C10.8846 31.912 7.1967 31.3286 3.58717 29.9328C3.25808 29.9692 2.96033 30.1151 2.73572 30.339C2.47976 30.5942 2.31783 30.9484 2.31783 31.339V60.8807C2.31783 61.2661 2.47976 61.6203 2.73572 61.8755C2.99168 62.1307 3.34688 62.2922 3.73343 62.2922H61.2561C61.6427 62.2922 61.9979 62.1307 62.2538 61.8755C62.515 61.6307 62.677 61.2765 62.677 60.8859ZM31.3351 49.8963C31.6694 49.9745 32.0351 50.0161 32.4216 50.0265C36.3707 50.1151 37.1177 46.313 37.2013 42.563C37.2274 41.4276 37.1908 40.2817 37.1595 39.2297C37.1334 38.3911 37.1125 37.6099 37.1177 36.912C37.1699 33.2036 37.3841 30.3495 38.4079 27.3338C39.4318 24.3286 41.2496 21.2088 44.4987 16.964C45.9822 15.0265 47.6068 13.162 49.3306 11.3859C48.6097 11.9484 47.8993 12.5213 47.1993 13.1047C42.1376 17.3026 37.6401 21.9172 33.8738 26.813C32.641 28.6776 31.5545 30.589 30.6561 32.5734C29.7576 34.5578 29.042 36.6047 28.5457 38.7245C28.2532 39.9953 27.9972 41.5995 27.9607 43.2088C27.9241 44.787 28.1017 46.3651 28.6554 47.6099C29.1621 48.7297 30.0031 49.589 31.3351 49.8963Z" fill="#C4174F"/>
</g>
</g>
<defs>
<clipPath id="clip0_383_3046">
<rect width="64" height="64" fill="white" transform="translate(0.5 0.114014)"/>
</clipPath>
</defs>
</svg>
