<svg width="65" height="49" viewBox="0 0 65 49" fill="none" xmlns="http://www.w3.org/2000/svg">
<g id="Group">
<g id="Group_2">
<g id="Group_3">
<path id="Vector" d="M6.58323 23.8205C6.50893 23.8205 6.43425 23.8147 6.35994 23.8027C4.43684 23.4941 2.96257 22.6326 1.97766 21.2428C0.234135 18.7825 0.788979 15.5818 0.813372 15.4468C0.87548 15.1037 1.06312 14.7958 1.3397 14.5831C8.42921 9.12937 18.9872 3.96324 28.2376 1.42208C31.3638 0.563088 34.5165 0.127686 37.6078 0.127686C46.0455 0.127686 52.7507 3.37914 56.8898 6.10668C61.0254 8.83197 63.4598 11.5479 63.8921 12.048C64.1381 12.3013 64.2895 12.6467 64.2895 13.0275C64.2895 13.8014 63.6641 14.4292 62.8909 14.4339C62.6101 14.4311 62.3219 14.354 62.0743 14.1817C59.1422 12.1414 50.1009 9.95667 41.3152 9.95667C38.2356 9.95667 35.3747 10.2141 32.812 10.7215C25.4433 12.1807 7.51654 23.4884 7.33641 23.6026C7.10974 23.7455 6.84836 23.8205 6.58323 23.8205ZM3.53337 16.4494C3.4919 17.1845 3.53299 18.5807 4.28317 19.6291C4.74213 20.2704 5.40843 20.6968 6.31078 20.9244C9.32011 19.0446 25.0053 9.39976 32.2648 7.9623C35.0075 7.41926 38.0525 7.14381 41.3152 7.14381C46.6459 7.14381 51.8369 7.8631 55.9933 8.89535C55.7554 8.73109 55.5112 8.56665 55.2602 8.4022C51.4573 5.91054 45.3081 2.94055 37.6078 2.94055C34.7685 2.94055 31.8668 3.3422 28.9836 4.13425C20.2624 6.52971 10.3482 11.3345 3.53337 16.4494Z" fill="#C4174F"/>
</g>
<g id="Group_4">
<path id="Vector_2" d="M56.4627 26.5296C55.8193 26.292 55.0984 26.553 54.7559 27.1469C53.1175 29.989 51.852 31.3713 50.653 31.6294C50.1586 31.7355 49.5936 31.6624 48.9495 31.4098C49.6062 30.1197 49.9762 28.592 50.0509 26.8367C50.0839 26.0608 49.4812 25.4049 48.7046 25.3719C47.9272 25.3368 47.2718 25.9412 47.2388 26.7173C47.1857 27.9633 46.9489 29.0379 46.5327 29.935C45.6958 29.3357 44.542 28.5887 43.0901 27.8349C43.5487 26.7614 43.8097 25.5495 43.8669 24.2046C43.8999 23.4287 43.2971 22.7728 42.5206 22.74C41.7414 22.7032 41.0878 23.3095 41.0548 24.0854C41.0139 25.046 40.8373 25.9027 40.5283 26.6519C39.2144 26.1148 37.7436 25.6179 36.1239 25.2195C36.3738 24.4141 36.5209 23.5517 36.5599 22.6346C36.593 21.8587 35.9901 21.2028 35.2136 21.1698C34.4364 21.1334 33.7808 21.7392 33.7478 22.5152C33.7137 23.3183 33.5645 24.0299 33.3286 24.6625C31.0826 24.3192 28.6103 24.1848 25.9288 24.3817C11.8824 25.4147 7.62489 32.56 5.31789 39.4193C5.31751 39.4208 5.31695 39.4223 5.31639 39.4236C5.3147 39.4287 5.31282 39.4338 5.31132 39.4388L5.3117 39.4394C5.17041 39.8617 5.2327 40.3406 5.51209 40.7199C5.74214 41.0325 11.2919 48.3751 23.6792 48.3756C23.6797 48.3756 23.6801 48.3756 23.6807 48.3756C24.5322 48.3756 25.4084 48.3398 26.2853 48.2691C39.1514 47.2329 43.8305 42.0807 45.3776 39.5294C47.2461 40.2138 49.02 40.1641 50.6663 39.377C55.6448 36.9969 57.2905 28.4688 57.3583 28.1069C57.4847 27.4332 57.1063 26.767 56.4627 26.5296ZM34.8254 27.8011C36.2485 28.1173 37.552 28.5185 38.7288 28.9618C36.6205 30.515 33.7047 30.5009 33.1387 30.4818C32.8092 30.3955 32.4799 30.3141 32.151 30.2401C33.2389 29.559 34.1328 28.7422 34.8254 27.8011ZM25.704 45.494C22.0874 45.494 19.1453 42.5536 19.1453 38.9395C19.1453 35.3256 22.0874 32.3852 25.704 32.3852C29.3205 32.3852 32.2627 35.3254 32.2627 38.9395C32.2627 42.5536 29.3205 45.494 25.704 45.494ZM26.1359 27.1868C28.0357 27.0471 29.8187 27.0889 31.4789 27.2592C29.4777 28.9491 26.6636 29.4484 25.1981 29.596C24.8283 29.6115 24.4624 29.635 24.1 29.6661C24.0974 29.6663 24.0946 29.6665 24.092 29.6667C18.7171 30.1266 14.1853 32.2382 10.5963 34.7366C13.1908 30.8482 17.5825 27.8159 26.1359 27.1868ZM17.7108 34.0588C16.837 35.481 16.3307 37.1516 16.3307 38.9395C16.3307 41.2886 17.2044 43.4349 18.6396 45.0803C13.2293 43.9993 9.99269 41.368 8.5931 39.9633C10.923 37.7996 13.9918 35.5418 17.7108 34.0588ZM40.6048 40.7015C39.1916 41.8506 36.9384 43.1926 33.4624 44.1872C34.4811 42.6895 35.0774 40.8831 35.0774 38.9395C35.0774 36.8891 34.4147 34.9907 33.2919 33.4465C36.4663 34.3905 39.685 35.9607 42.9224 38.1533C42.5201 38.7968 41.8048 39.7257 40.6048 40.7015ZM40.2236 33.2624C39.604 32.9389 38.9848 32.6367 38.3663 32.3556C39.279 31.9796 40.1928 31.4595 41.0101 30.7319C41.1998 30.5632 41.3781 30.3858 41.5492 30.2031C42.8734 30.875 43.9379 31.5478 44.7227 32.0994C43.0246 33.2607 40.9163 33.289 40.2236 33.2624ZM49.4523 36.8399C48.2777 37.4015 46.9684 37.2851 45.4523 36.4863C44.9851 36.1538 44.5178 35.8345 44.0506 35.5257C45.0421 35.1988 46.0767 34.6871 47.0097 33.8877C47.0785 33.8289 47.1436 33.7666 47.2101 33.7057C48.6603 34.4261 49.9925 34.6483 51.2454 34.379C51.564 34.3104 51.8704 34.2118 52.166 34.0861C51.4283 35.2973 50.5252 36.3269 49.4523 36.8399Z" fill="#C4174F"/>
<g id="Group_5">
<path id="Vector_3" d="M25.7041 43.4904C23.1929 43.4904 21.1499 41.4487 21.1499 38.9393C21.1499 36.4298 23.1929 34.3882 25.7041 34.3882C28.2152 34.3882 30.2582 36.4298 30.2582 38.9393C30.258 41.4489 28.2152 43.4904 25.7041 43.4904ZM25.7041 37.201C24.7449 37.201 23.9645 37.9809 23.9645 38.9395C23.9645 39.898 24.7449 40.6779 25.7041 40.6779C26.6633 40.6779 27.4436 39.898 27.4436 38.9395C27.4436 37.9809 26.6633 37.201 25.7041 37.201Z" fill="#C4174F"/>
</g>
</g>
</g>
</g>
</svg>
