<svg width="25" height="32" viewBox="0 0 25 32" fill="none" xmlns="http://www.w3.org/2000/svg">
<g id="Group">
<g id="Group_2">
<g id="Group_3">
<path id="Vector" d="M3.04625 14.0717V11.8394C3.04625 10.6755 3.9985 9.77618 5.10947 9.77618H6.24231C6.27269 9.71046 6.27337 9.65237 6.27337 9.61747C6.27337 9.56459 6.22049 9.45876 6.06178 9.40588C5.47983 9.24717 5.05664 8.71816 5.10953 8.08333C5.16241 7.44849 5.58566 6.91948 6.22049 6.81366C6.3792 6.76077 6.43208 6.65495 6.43208 6.60206C6.43208 6.54918 6.43208 6.39047 6.32626 6.28465C5.90301 5.80852 5.85013 5.17369 6.16755 4.64468C6.48496 4.11567 7.1198 3.90401 7.75464 4.11567C7.86046 4.16855 7.96623 4.11567 8.01917 4.06279C8.07211 4.0099 8.17788 3.95696 8.125 3.79825V3.74537C8.07211 3.26924 8.17788 2.79311 8.54824 2.4757C8.86566 2.1054 9.39467 1.99957 9.87079 2.15828C9.92368 2.15828 9.92368 2.21116 9.97662 2.21116L14.8299 4.94114L20.9275 0.571067C21.5094 0.25365 22.1443 0.200767 22.832 0.412359C23.4139 0.571067 23.9429 0.994312 24.2604 1.5762C24.5778 2.15809 24.6307 2.79299 24.4191 3.42783C24.2075 4.06266 23.7313 4.53879 23.1494 4.80332L16.3384 8.054L15.7959 13.4794C15.7959 13.5323 15.7959 13.5323 15.7959 13.5853C15.6802 13.9325 15.4515 14.2228 15.1518 14.396C16.5809 15.5891 17.383 17.3508 17.383 19.1929V26.1233C17.383 29.3503 14.7908 31.9426 11.5636 31.9426H6.27337C3.04632 31.9426 0.454029 29.3504 0.454029 26.1762V19.193C0.454029 17.1512 1.39177 15.2971 3.04625 14.0717ZM23.4139 3.11041C23.5197 2.74011 23.4667 2.36975 23.308 2.05233C23.1493 1.73491 22.8848 1.47038 22.5145 1.36461C22.1442 1.25885 21.7738 1.31173 21.5094 1.47044L15.5313 5.70269L16.1661 6.91948L22.6733 3.85107C23.0436 3.69236 23.3081 3.48071 23.4139 3.11041ZM14.4204 5.96717L11.9869 4.61814L9.55331 3.26912C9.44749 3.26912 9.34172 3.322 9.28878 3.37494C9.23584 3.42789 9.18295 3.48077 9.2359 3.63948C9.39461 4.11561 9.2359 4.59173 8.86559 4.90915C8.49529 5.22657 7.96623 5.33239 7.4901 5.17369C7.33139 5.06786 7.22557 5.22657 7.17268 5.27951C7.1198 5.33239 7.06686 5.4911 7.22556 5.64981C7.59587 6.02011 7.70169 6.49624 7.54298 6.97236C7.38427 7.44849 7.01397 7.76591 6.4849 7.87174C6.32619 7.92462 6.27331 8.08333 6.27331 8.13627C6.27331 8.18921 6.27331 8.34786 6.53785 8.40081C6.96109 8.55952 7.33139 8.92982 7.43722 9.40594C7.54305 9.88207 7.38433 10.3582 7.01397 10.7285C6.85526 10.8343 6.90815 10.993 6.96109 11.0459C6.96109 11.0858 7.02117 11.1556 7.14125 11.165C7.16729 11.1633 7.19519 11.1593 7.22556 11.1517C7.357 11.1079 7.48824 11.0891 7.61632 11.0915C7.97224 11.0811 8.30627 11.2399 8.54812 11.5221C8.86553 11.8924 8.97136 12.4215 8.81265 12.8976C8.75977 13.0563 8.86553 13.1621 8.91848 13.215C8.94135 13.2379 8.98394 13.2606 9.03776 13.2664C9.09802 13.26 9.16696 13.2311 9.2359 13.1621C9.50031 12.8977 9.81872 12.7689 10.1524 12.7742C10.303 12.7701 10.4571 12.7933 10.6113 12.8447C11.0875 13.0034 11.4049 13.3737 11.5107 13.9027C11.56 14.0507 11.7001 14.106 11.7619 14.113C11.8311 14.1069 11.9439 14.0746 11.9868 13.9027C12.1455 13.4795 12.5158 13.1092 12.992 13.0034C13.0225 12.9966 13.053 12.991 13.0836 12.9863C13.1765 12.9505 13.2694 12.9504 13.3623 12.9504C13.7326 12.9504 14.103 13.1091 14.2617 13.3737V13.3765C14.2795 13.3929 14.2973 13.4092 14.3146 13.4265C14.4204 13.4794 14.5262 13.4794 14.5791 13.4794C14.6321 13.4794 14.7378 13.4265 14.7907 13.3207L15.3727 7.76591L14.4204 5.96717ZM1.51205 26.1761C1.51205 28.8212 3.62814 30.9373 6.27331 30.9373H11.5636C14.2088 30.9373 16.3249 28.8212 16.3249 26.1761V19.1929C16.3249 17.7645 15.7429 16.389 14.7378 15.4368V20.727C14.7378 21.2658 14.65 21.7829 14.49 22.2665C13.9192 24.1749 12.1521 25.5941 10.0294 25.5941H7.75457C5.21523 25.5941 3.09914 23.5309 3.04619 20.9916V15.4922C2.07416 16.4904 1.51198 17.7902 1.51198 19.1929L1.51205 26.1761Z" fill="#C4174F"/>
</g>
</g>
</g>
</svg>
