<svg width="55" height="55" viewBox="0 0 55 55" fill="none" xmlns="http://www.w3.org/2000/svg">
<path id="Vector" d="M43.8113 0.114014C44.3568 0.114014 44.8633 0.400901 45.1779 0.874505L45.3006 1.08862L54.3166 19.529L54.4131 19.7803L54.4392 19.8731L54.4775 20.0628L54.4984 20.2788L54.4937 20.5228L54.5 20.364C54.5 20.622 54.4514 20.8677 54.3634 21.0908L54.2986 21.2371L54.2072 21.4006L54.0887 21.5687L28.847 53.3892C28.6218 53.7191 28.3132 53.9366 27.9782 54.0411L27.8477 54.0757L27.6285 54.1089L27.4966 54.114L27.2703 54.0973L27.0788 54.0578L26.8463 53.9746L26.7885 53.9446C26.5853 53.8467 26.3985 53.7007 26.2423 53.509L0.878311 21.5331L0.738548 21.3181L0.630739 21.0896L0.5527 20.8458L0.50063 20.524L0.5 20.2113L0.533438 19.9691L0.555018 19.8729L0.631301 19.637L0.692823 19.4978L9.69379 1.08862C9.95043 0.563711 10.4209 0.211214 10.952 0.131294L11.1829 0.114014H43.8113ZM36.2865 22.2049H18.7009L27.4993 47.1431L36.2865 22.2049ZM15.0871 22.2049H5.87009L22.461 43.1127L15.0871 22.2049ZM49.1174 22.2049H39.9072L32.5421 43.0956L49.1174 22.2049ZM18.5501 3.79338H12.1933L4.99025 18.5231H14.9476L18.5501 3.79338ZM32.9494 3.79338H22.0425L18.4399 18.5231H36.5498L32.9494 3.79338ZM42.7987 3.79338H36.4418L40.0444 18.5231H49.9973L42.7987 3.79338Z" fill="#C4174F"/>
</svg>
