<svg width="59" height="87" viewBox="0 0 59 87" fill="none" xmlns="http://www.w3.org/2000/svg">
<g id="skincare-icon" clip-path="url(#clip0_383_3022)">
<path id="Vector" fill-rule="evenodd" clip-rule="evenodd" d="M21.9339 2.45129C27.3809 -1.18103 33.5211 -0.376179 38.6144 3.46611C39.9751 4.49722 41.125 5.77504 42.0029 7.23141C42.774 8.51917 44.1251 11.1437 41.5997 11.5496C40.6022 11.7036 38.862 10.3668 37.518 9.9329C35.8072 9.3963 34.0464 9.03054 32.262 8.84111C29.1486 8.51348 26.001 8.75066 22.9738 9.54098C21.4771 9.94329 20.0153 10.4628 18.602 11.0947C17.9512 11.3956 16.6071 12.2705 16.2463 11.1437C15.3975 8.51217 19.9885 3.75305 21.9339 2.45129ZM48.2634 69.1769L48.1998 69.3029C49.2226 69.8432 49.9956 70.7528 50.3579 71.8425C50.7202 72.9322 50.644 74.1182 50.1451 75.1538L50.2795 75.2168C50.8256 74.2048 51.745 73.4401 52.8465 73.0816C53.948 72.7231 55.1467 72.7985 56.1934 73.2921L56.2571 73.1661C55.2332 72.6231 54.4596 71.7114 54.0961 70.6197C53.7327 69.5281 53.8074 68.34 54.3046 67.3012L54.1773 67.2382C53.6337 68.2527 52.7149 69.0201 51.6128 69.38C50.5107 69.74 49.3107 69.6647 48.2634 69.1699V69.1769ZM36.5347 80.7457V80.8157C37.0949 81.11 37.5187 81.6069 37.7178 82.2028C37.9168 82.7986 37.8756 83.4475 37.6029 84.0141L37.6736 84.0491C37.971 83.4948 38.4733 83.0755 39.0756 82.8786C39.6779 82.6817 40.3337 82.7225 40.9064 82.9923V82.9223C40.3462 82.628 39.9224 82.1312 39.7233 81.5353C39.5243 80.9394 39.5655 80.2905 39.8382 79.7239H39.7675C39.4701 80.2782 38.9678 80.6975 38.3655 80.8944C37.7632 81.0913 37.1074 81.0506 36.5347 80.7807V80.7457ZM13.8553 78.9751L13.9331 79.129C12.6971 79.7419 11.7473 80.8024 11.2809 82.0901C10.8146 83.3778 10.8676 84.7937 11.4289 86.0437L11.2733 86.1137C10.9828 85.4969 10.5673 84.9456 10.0525 84.4941C9.5378 84.0427 8.93483 83.7006 8.28098 83.4892C7.64056 83.2441 6.95617 83.1313 6.27 83.1577C5.58383 83.1842 4.91041 83.3494 4.29123 83.6432L4.21341 83.4892C4.83646 83.2011 5.39325 82.7898 5.84949 82.2806C6.30572 81.7715 6.65173 81.1753 6.86618 80.5288C7.11483 79.8944 7.22992 79.2164 7.20437 78.5365C7.17883 77.8565 7.01319 77.1889 6.71762 76.5745L6.87325 76.5045C7.16278 77.1213 7.57804 77.6721 8.09298 78.1226C8.60792 78.573 9.2114 78.9133 9.86557 79.122C10.5051 79.3699 11.1895 79.4848 11.8759 79.4595C12.5623 79.4342 13.2361 79.2693 13.8553 78.9751ZM9.56846 67.1892L9.62505 67.3152C8.58336 67.825 7.781 68.7131 7.38554 69.7943C6.99008 70.8754 7.03211 72.0659 7.50284 73.1171L7.37551 73.1801C7.12967 72.6623 6.77947 72.1997 6.34642 71.8206C5.91336 71.4415 5.40657 71.1539 4.85715 70.9755C4.31994 70.771 3.74628 70.6766 3.17106 70.6983C2.59584 70.7199 2.03108 70.8571 1.51113 71.1015L1.44747 70.9755C1.97409 70.7354 2.44538 70.3911 2.83228 69.9637C3.21918 69.5364 3.51348 69.0352 3.69701 68.491C3.90449 67.9633 4.00024 67.3991 3.97834 66.8332C3.95644 66.2674 3.81735 65.7121 3.56968 65.2016L3.70408 65.1386C3.95374 65.6479 4.3049 66.1021 4.73645 66.4737C5.16801 66.8453 5.67106 67.1268 6.21537 67.3012C6.75358 67.5068 7.32851 67.6016 7.90503 67.58C8.48155 67.5583 9.04755 67.4206 9.56846 67.1753V67.1892ZM21.0142 79.045L21.0496 79.115C20.7649 79.2487 20.5104 79.4378 20.3013 79.6711C20.0922 79.9044 19.9329 80.1771 19.8329 80.4728C19.7192 80.7637 19.6668 81.0746 19.679 81.3863C19.6911 81.6981 19.7676 82.004 19.9036 82.2854H19.8329C19.6978 82.0037 19.5066 81.7519 19.2708 81.5451C19.035 81.3382 18.7594 81.1806 18.4605 81.0817C18.1664 80.9692 17.8522 80.9174 17.5371 80.9294C17.2221 80.9414 16.9128 81.0171 16.6283 81.1517L16.593 81.0817C17.1599 80.8009 17.5954 80.3145 17.8089 79.7239C18.0224 79.1333 17.9973 78.484 17.739 77.9113H17.8097C18.0935 78.4721 18.5851 78.903 19.1821 79.1142C19.779 79.3254 20.4353 79.3007 21.0142 79.045ZM26.0368 64.5717C26.1977 64.5199 26.3711 64.5199 26.532 64.5717C26.6615 64.6067 26.7805 64.672 26.879 64.7622C26.9775 64.8523 27.0526 64.9647 27.0979 65.0896C27.5577 65.9785 31.116 66.0485 31.7809 65.0476C31.8756 64.8624 32.0378 64.7196 32.2349 64.6482C32.4319 64.5768 32.649 64.582 32.8422 64.663C33.0354 64.7439 33.1904 64.8944 33.2757 65.084C33.361 65.2737 33.3704 65.4883 33.3018 65.6845C32.1063 68.0081 26.5249 67.9521 25.5204 65.6355C25.4478 65.4313 25.4599 65.207 25.554 65.0116C25.6481 64.8162 25.8166 64.6656 26.0227 64.5927L26.0368 64.5717ZM38.0839 51.2042L37.1289 52.373C37.062 52.4577 36.9787 52.5284 36.884 52.581C36.7892 52.6335 36.6848 52.667 36.5769 52.6794C36.469 52.6917 36.3597 52.6828 36.2553 52.653C36.1509 52.6233 36.0535 52.5733 35.9688 52.506C35.8843 52.4359 35.8147 52.35 35.7639 52.2533C35.7132 52.1565 35.6823 52.0507 35.6731 51.942C35.6639 51.8333 35.6765 51.7239 35.7103 51.6201C35.744 51.5163 35.7982 51.4202 35.8697 51.3372L36.5064 50.5044C36.3321 50.3804 36.2133 50.1944 36.175 49.9855C36.1368 49.7766 36.182 49.5611 36.3012 49.3846C36.361 49.2947 36.4385 49.2175 36.5289 49.1577C36.6194 49.098 36.721 49.0567 36.8279 49.0365C36.9347 49.0163 37.0446 49.0175 37.151 49.04C37.2574 49.0625 37.3581 49.1059 37.4472 49.1676C38.3149 49.6273 39.2943 49.8404 40.2768 49.7835C41.2977 49.7965 42.3036 49.5405 43.1913 49.0416C43.2822 48.9833 43.3839 48.9433 43.4905 48.924C43.5971 48.9047 43.7065 48.9065 43.8124 48.9293C43.9183 48.9521 44.0186 48.9954 44.1074 49.0567C44.1963 49.118 44.2721 49.1962 44.3303 49.2866C44.3891 49.3775 44.4292 49.479 44.4483 49.5853C44.4673 49.6915 44.4649 49.8005 44.4413 49.9059C44.4176 50.0112 44.3731 50.1109 44.3103 50.1992C44.2476 50.2875 44.1678 50.3627 44.0756 50.4204L43.9978 50.4694L44.7406 51.2812C44.8878 51.4427 44.9642 51.6554 44.953 51.8727C44.9417 52.0899 44.8437 52.2938 44.6804 52.4395C44.5172 52.5852 44.3022 52.6608 44.0826 52.6496C43.863 52.6385 43.6569 52.5415 43.5097 52.38L42.3708 51.1342C41.9803 51.2358 41.5832 51.3106 41.1823 51.3582V52.506C41.193 52.6203 41.1794 52.7357 41.1425 52.8446C41.1056 52.9534 41.0461 53.0535 40.9679 53.1384C40.8897 53.2233 40.7944 53.291 40.6882 53.3374C40.582 53.3838 40.4672 53.4078 40.3511 53.4078C40.235 53.4078 40.1202 53.3838 40.014 53.3374C39.9078 53.291 39.8125 53.2233 39.7343 53.1384C39.6561 53.0535 39.5966 52.9534 39.5597 52.8446C39.5228 52.7357 39.5092 52.6203 39.5199 52.506V51.3862C39.0426 51.3568 38.569 51.2842 38.1051 51.1692L38.0839 51.2042ZM16.3171 51.2042L15.355 52.352C15.2869 52.4364 15.2027 52.5066 15.1071 52.5587C15.0114 52.6107 14.9064 52.6435 14.7979 52.6552C14.6894 52.6669 14.5797 52.6573 14.475 52.6269C14.3703 52.5965 14.2727 52.5459 14.1878 52.478C14.1027 52.4113 14.0319 52.3285 13.9794 52.2345C13.9269 52.1405 13.8938 52.0372 13.8819 51.9304C13.8701 51.8236 13.8798 51.7156 13.9104 51.6126C13.9411 51.5096 13.9921 51.4136 14.0605 51.3302L14.6971 50.5463C14.5095 50.4257 14.378 50.2362 14.3316 50.0197C14.2852 49.8031 14.3276 49.5772 14.4495 49.3916C14.5715 49.2059 14.763 49.0759 14.9819 49.0299C15.2008 48.984 15.4291 49.026 15.6168 49.1466C16.4642 49.6158 17.4265 49.8435 18.3969 49.8045C18.4697 49.7969 18.5432 49.7969 18.6161 49.8045H18.793C19.7565 49.797 20.7036 49.5568 21.5519 49.1046C21.7348 49.0409 21.9344 49.0423 22.1164 49.1083C22.2984 49.1744 22.4515 49.3011 22.5494 49.4666C22.6473 49.6322 22.6839 49.8263 22.6529 50.0157C22.6219 50.2051 22.5253 50.3778 22.3795 50.5044H22.33L23.002 51.2042C23.1276 51.3687 23.1864 51.5737 23.1669 51.7789C23.1475 51.9841 23.0512 52.1747 22.897 52.3132C22.7428 52.4517 22.5418 52.5282 22.3335 52.5276C22.1251 52.5271 21.9246 52.4494 21.7712 52.31L20.6747 51.2042C20.2648 51.3044 19.849 51.3792 19.4297 51.4282V52.534C19.4105 52.739 19.3147 52.9295 19.1609 53.0683C19.0072 53.207 18.8066 53.2839 18.5985 53.2839C18.3904 53.2839 18.1898 53.207 18.036 53.0683C17.8822 52.9295 17.7864 52.739 17.7673 52.534V51.4212C17.277 51.4108 16.7898 51.3403 16.3171 51.2112V51.2042ZM37.2845 45.7872C37.1059 45.9142 36.8839 45.9664 36.6666 45.9323C36.4494 45.8982 36.2545 45.7807 36.1244 45.6053C36.0619 45.518 36.0175 45.4195 35.9936 45.3152C35.9698 45.2109 35.9669 45.103 35.9854 44.9977C36.0038 44.8923 36.043 44.7916 36.1009 44.7013C36.1587 44.611 36.234 44.5329 36.3225 44.4715C37.7013 43.4354 39.3737 42.8529 41.1045 42.8058C42.8677 42.8406 44.5763 43.4179 45.9927 44.4575C46.1391 44.5909 46.232 44.772 46.2544 44.9677C46.2767 45.1634 46.2271 45.3605 46.1145 45.5229C46.0019 45.6854 45.8339 45.8022 45.6414 45.852C45.4488 45.9018 45.2445 45.8813 45.066 45.7942C43.928 44.9459 42.5502 44.4711 41.1257 44.4365C39.7316 44.4652 38.3842 44.939 37.2845 45.7872ZM13.9897 45.7872C13.8111 45.9142 13.5891 45.9664 13.3718 45.9323C13.1546 45.8982 12.9597 45.7807 12.8296 45.6053C12.7671 45.518 12.7227 45.4195 12.6988 45.3152C12.675 45.2109 12.6722 45.103 12.6906 44.9977C12.709 44.8923 12.7482 44.7916 12.8061 44.7013C12.8639 44.611 12.9392 44.5329 13.0277 44.4715C14.407 43.4363 16.0791 42.8539 17.8097 42.8058C19.573 42.8406 21.2815 43.4179 22.6979 44.4575C22.7922 44.5161 22.8736 44.593 22.9372 44.6835C23.0008 44.774 23.0452 44.8762 23.0679 44.9842C23.0906 45.0921 23.091 45.2034 23.0692 45.3115C23.0473 45.4195 23.0036 45.5221 22.9407 45.6131C22.8778 45.7041 22.797 45.7816 22.7032 45.8409C22.6093 45.9002 22.5043 45.9402 22.3944 45.9584C22.2845 45.9767 22.1721 45.9727 22.0638 45.9469C21.9555 45.9211 21.8535 45.8739 21.7641 45.8082C20.6252 44.9616 19.248 44.487 17.8239 44.4505C16.4306 44.4841 15.0848 44.9574 13.9827 45.8012L13.9897 45.7872ZM3.52016 41.728C3.74526 41.5859 4.01078 41.5196 4.27708 41.539C3.90268 39.155 3.80537 36.7363 3.98705 34.3304C4.24171 27.4646 5.99607 21.9777 11.4714 17.2185C19.7126 10.0379 36.0536 9.408 45.1438 15.5948C46.5182 16.5331 47.7703 17.6355 48.8718 18.8772C52.5574 23.0765 55.8468 32.2518 55.776 37.9207C55.749 39.2831 55.5104 40.6333 55.0686 41.924C55.0686 42.0569 55.0191 42.2039 54.9767 42.3649C55.9153 42.9384 56.7186 43.7045 57.3323 44.6115C58.192 45.887 58.6046 47.4066 58.5066 48.9366C58.3797 50.5721 57.8529 52.1525 56.9716 53.5418C55.6873 55.5494 53.9846 57.2626 51.9773 58.5669C50.0341 63.1629 47.3513 67.4172 44.0331 71.1645C41.4868 74.1099 38.2626 76.4069 34.6318 77.8623C30.9707 79.2453 26.9078 79.1548 23.3133 77.6103C21.0227 76.6246 18.9178 75.2615 17.0882 73.5791C15.0521 71.7323 13.2792 69.6204 11.818 67.3012C10.2803 64.8514 8.95732 62.2758 7.86362 59.6027C7.35207 59.452 6.85305 59.2625 6.371 59.0358C5.71505 58.7407 5.09555 58.372 4.52467 57.937C2.95198 56.6891 1.79582 55.0014 1.20695 53.0939C0.530343 51.0003 0.336956 48.7833 0.641028 46.6061C0.760002 45.608 1.06968 44.6413 1.55358 43.7576C2.03353 42.9337 2.70836 42.2372 3.52016 41.728ZM4.88545 43.8276C4.42129 44.118 4.03917 44.5201 3.77482 44.9964C3.44349 45.5965 3.2344 46.2552 3.15938 46.935C2.89326 48.7388 3.0432 50.5787 3.59797 52.317C4.04203 53.7429 4.91272 55.0021 6.09511 55.9283C6.53791 56.2493 7.01184 56.5259 7.50991 56.7542C8.0389 56.9987 8.591 57.1909 9.15816 57.3281C9.35227 57.3746 9.53241 57.4661 9.6837 57.5951C9.83499 57.7241 9.9531 57.8869 10.0283 58.0699C11.0925 60.8112 12.4017 63.4532 13.9402 65.9645C15.264 68.0914 16.8726 70.0313 18.7223 71.7314C20.3455 73.2252 22.2106 74.4389 24.24 75.3217C27.2525 76.6173 30.6583 76.6927 33.7263 75.5317C36.978 74.2167 39.8609 72.1448 42.1302 69.4918C45.3474 65.8696 47.9319 61.7421 49.7773 57.2791C49.8799 57.0408 50.0524 56.8385 50.2724 56.6982C52.0926 55.569 53.6385 54.0563 54.7998 52.268C55.468 51.2259 55.8732 50.0401 55.9812 48.8107C56.0546 47.8266 55.8066 46.8453 55.2738 46.0112C54.965 45.5517 54.5799 45.147 54.1349 44.8144C47.8744 58.8888 49.558 47.257 49.558 39.8103C43.6511 37.0879 39.81 31.153 37.8504 22.2436C35.5089 39.2085 14.4495 38.4736 9.15816 41.567C9.15816 46.991 10.9479 55.1865 6.44881 47.208C5.82615 46.1226 5.30294 44.9843 4.88545 43.8066V43.8276Z" fill="#C4174F"/>
</g>
<defs>
<clipPath id="clip0_383_3022">
<rect width="58" height="86" fill="white" transform="translate(0.5 0.114014)"/>
</clipPath>
</defs>
</svg>
