<svg width="68" height="69" viewBox="0 0 68 69" fill="none" xmlns="http://www.w3.org/2000/svg">
<g id="spa-svgrepo-com" clip-path="url(#clip0_1475_10420)">
<g id="Group">
<g id="Group_2">
<g id="Group_3">
<path id="Vector" d="M15.1475 37.4782C15.5709 36.274 15.3132 34.8811 14.3524 33.9192C13.9488 33.5167 13.4651 33.2502 12.954 33.0911C13.3774 31.8869 13.1196 30.494 12.1588 29.5321C11.4251 28.8006 10.4413 28.4858 9.48161 28.5571L9.5529 27.9846C9.67026 27.0468 9.37961 26.1014 8.75335 25.3929C8.12819 24.6833 7.22664 24.2764 6.28123 24.2764C4.63716 24.2764 3.2651 25.4554 3.01942 27.0819L2.14748 32.8422L0.0208387 43.8099L0 50.599L1.09677 56.1914V68.1473H3.29032V56.0828L2.19355 50.4904V44.1225L4.30813 33.214L5.18774 27.4088C5.27 26.8648 5.73065 26.4699 6.28123 26.4699C6.60258 26.4699 6.89652 26.6026 7.10929 26.8439C7.32206 27.0852 7.41639 27.3923 7.3769 27.7115L6.58942 34.0113L6.58393 36.3475C6.55981 36.3475 6.53787 36.3409 6.51374 36.3409C4.70626 36.3409 3.29032 37.7853 3.29032 39.6312V47.3086H5.48387V39.6312C5.48387 39.006 5.92697 38.5344 6.54774 38.5344C7.15974 38.5344 7.67742 39.0368 7.67742 39.6312V42.1571L12.0645 48.7377V68.1473H14.2581V48.0731L13.203 46.4904L16.5459 43.1475C17.193 42.5026 17.5484 41.6427 17.5484 40.728C17.5484 39.8133 17.193 38.9534 16.5459 38.3063C16.1412 37.9038 15.6575 37.6373 15.1475 37.4782ZM8.77419 34.2164L9.19206 30.8691C9.65271 30.6377 10.223 30.7002 10.608 31.084C10.8405 31.3166 10.9677 31.6248 10.9677 31.9538C10.9677 32.2828 10.8405 32.591 10.608 32.8235L9.51122 33.9203L8.77419 34.6573V34.2164ZM9.0451 37.4881L11.0621 35.4711C11.5425 34.9908 12.3212 34.9908 12.8015 35.4711C13.0341 35.7037 13.1613 36.0119 13.1613 36.3409C13.1613 36.6699 13.0341 36.9781 12.8015 37.2106L11.7048 38.3074L9.87097 40.1401V39.6312C9.87097 38.8086 9.554 38.065 9.0451 37.4881ZM14.9951 41.5977L11.9625 44.6303L10.5707 42.5431L13.2556 39.8582C13.736 39.3779 14.5147 39.3779 14.9951 39.8582C15.2276 40.0908 15.3548 40.399 15.3548 40.728C15.3548 41.057 15.2276 41.3652 14.9951 41.5977Z" fill="#C4174F"/>
<path id="Vector_2" d="M65.8602 32.8871L64.9806 27.0819C64.735 25.4554 63.3629 24.2764 61.7188 24.2764C60.7734 24.2764 59.8708 24.6833 59.2456 25.3929C58.6204 26.1025 58.3287 27.0468 58.446 27.9835L58.5173 28.5571C57.5566 28.4847 56.5717 28.8006 55.8401 29.5332C54.8793 30.494 54.6216 31.888 55.045 33.0922C54.5349 33.2513 54.0502 33.5178 53.6466 33.9203C52.6858 34.8811 52.428 36.274 52.8514 37.4782C52.3414 37.6373 51.8566 37.9038 51.453 38.3074C50.807 38.9534 50.4517 39.8133 50.4517 40.728C50.4517 41.6427 50.807 42.5026 51.4541 43.1486L54.7971 46.4915L53.742 48.0731V68.1473H55.9355V48.7377L60.3226 42.1571V39.6312C60.3226 39.0368 60.8403 38.5344 61.4852 38.5344C62.072 38.5344 62.5162 39.006 62.5162 39.6312V47.3086H64.7097V39.6312C64.7097 37.7853 63.2938 36.3409 61.4523 36.3409C61.4413 36.3409 61.4304 36.3442 61.4194 36.3442V34.1473L60.6231 27.7104C60.5837 27.3923 60.678 27.0852 60.8908 26.8439C61.1035 26.6026 61.3975 26.4699 61.7188 26.4699C62.2694 26.4699 62.73 26.8648 62.8123 27.4088L63.6996 33.2589L65.8065 44.1236V50.4915L64.7306 55.8679L64.7097 68.1473H66.9033V56.1914L67.9781 50.815L68 44.0183L65.8602 32.8871ZM56.0375 44.6303L53.0049 41.5977C52.7724 41.3652 52.6452 41.057 52.6452 40.728C52.6452 40.399 52.7724 40.0908 53.0049 39.8593C53.4853 39.379 54.2651 39.379 54.7444 39.8582L57.4293 42.5431L56.0375 44.6303ZM58.1291 39.6312V40.1401L56.2953 38.3074L55.1985 37.2106C54.966 36.9781 54.8388 36.6699 54.8388 36.3409C54.8388 36.0119 54.966 35.7037 55.1985 35.4722C55.6789 34.9919 56.4587 34.9919 56.938 35.4711L58.9528 37.4859C58.4471 38.0639 58.1291 38.8086 58.1291 39.6312ZM59.2259 34.6573L58.4888 33.9203L57.392 32.8235C57.1595 32.591 57.0323 32.2828 57.0323 31.9538C57.0323 31.6248 57.1595 31.3166 57.392 31.0851C57.7759 30.7013 58.3462 30.6388 58.808 30.8691L59.2259 34.2164V34.6573Z" fill="#C4174F"/>
<path id="Vector_3" d="M56.7427 25.0178L57.4238 24.2763L56.7427 23.5349C56.5672 23.3419 53.1595 19.682 48.5322 18.2562C50.796 13.9765 50.6172 8.97744 50.6073 8.71751L50.5646 7.71177L49.5588 7.66899C49.2967 7.65364 44.3031 7.47706 40.0202 9.74409C38.5944 5.1168 34.9344 1.70912 34.7414 1.53364L34 0.852539L33.2586 1.53364C33.0655 1.70912 29.4056 5.11789 27.9798 9.74409C23.7013 7.48035 18.7022 7.65583 18.4411 7.66899L17.4354 7.71177L17.3926 8.71751C17.3817 8.97744 17.2018 13.9754 19.4677 18.2562C14.8404 19.682 11.4328 23.3419 11.2573 23.5349L10.5762 24.2763L11.2573 25.0178C11.4755 25.2569 16.6896 30.857 23.0322 30.857C23.3613 30.857 23.6881 30.8416 24.0128 30.8131C28.062 30.4512 31.5761 27.8178 33.1829 23.9374C33.23 23.8234 33.275 23.7093 33.3189 23.5942C33.4329 23.5503 33.5481 23.5053 33.6622 23.4582C33.7751 23.411 33.8892 23.3616 34.0011 23.3112C34.1129 23.3616 34.2259 23.411 34.34 23.4582C34.4529 23.5053 34.5681 23.5503 34.6833 23.5942C34.7271 23.7082 34.7721 23.8234 34.8193 23.9374C36.426 27.8167 39.9401 30.4501 43.9905 30.8131C44.3119 30.8416 44.6387 30.857 44.9677 30.857C51.3104 30.857 56.5244 25.2569 56.7427 25.0178ZM40.5368 14.288C40.5653 13.9645 40.5806 13.6376 40.5806 13.3086C40.5806 12.8633 40.5532 12.4235 40.5017 11.9914C43.2831 10.3232 46.7028 9.95247 48.4028 9.8757C48.3282 11.5746 47.9619 14.99 46.2871 17.7747C43.8929 17.4906 41.3242 18.0149 38.7117 19.3792C39.7306 17.8822 40.3722 16.1405 40.5368 14.288ZM44.5696 19.8991C44.4742 19.9858 44.3766 20.0702 44.2768 20.1525C42.4945 21.643 40.2834 22.3197 38.0131 22.1311C38.5055 21.9446 38.9903 21.7231 39.4608 21.4664C41.2321 20.5002 42.9475 19.9726 44.5696 19.8991ZM27.4983 11.9892C27.4468 12.4224 27.4193 12.8633 27.4193 13.3086C27.4193 13.6376 27.4347 13.9645 27.4632 14.2891C27.6277 16.1416 28.2693 17.8822 29.2882 19.3803C27.1495 18.2627 25.0459 17.6957 23.0322 17.6957C22.5869 17.6957 22.1471 17.7231 21.715 17.7747C20.0468 14.9932 19.6761 11.5735 19.5993 9.87351C21.2982 9.94809 24.7136 10.3155 27.4983 11.9892ZM29.9869 22.1311C27.7199 22.3208 25.5055 21.643 23.7221 20.1514C23.6234 20.0702 23.5258 19.9858 23.4304 19.8991C25.0525 19.9726 26.7679 20.5002 28.538 21.4664C29.0097 21.7231 29.4944 21.9446 29.9869 22.1311ZM23.8186 28.6283C23.5587 28.6503 23.2966 28.6634 23.0322 28.6634C18.9292 28.6634 15.1914 25.6978 13.6362 24.2763C14.8931 23.128 17.5714 20.974 20.7159 20.1865C20.9868 20.5298 21.2785 20.8599 21.5944 21.1758C21.8269 21.4072 22.0682 21.6287 22.316 21.836C24.6258 23.7674 27.6069 24.6054 30.5813 24.2632C29.1303 26.7693 26.6779 28.3728 23.8186 28.6283ZM29.648 14.095C29.6359 13.9667 29.6282 13.8383 29.6228 13.7078C29.7094 13.8043 29.7938 13.9009 29.8761 14.0007C31.1231 15.4901 31.7999 17.2844 31.8777 19.1544C30.6098 17.7758 29.8202 16.0297 29.648 14.095ZM34 18.3658C33.7751 16.2633 32.9493 14.254 31.5608 12.5924C31.3535 12.3423 31.1308 12.1022 30.8983 11.8674C30.5835 11.5527 30.2534 11.2609 29.9112 10.9911C30.6987 7.84667 32.8528 5.16725 34.0011 3.91144C35.1494 5.16835 37.3035 7.84667 38.0899 10.9911C37.7477 11.262 37.4164 11.5538 37.1006 11.8696C36.8691 12.1022 36.6476 12.3434 36.4403 12.5913C35.0507 14.254 34.2248 16.2633 34 18.3658ZM36.1222 19.1533C36.2001 17.2833 36.8779 15.489 38.1249 13.9985C38.2061 13.8998 38.2906 13.8022 38.3772 13.7067C38.3717 13.8362 38.3629 13.9656 38.352 14.0928C38.1787 16.0275 37.3901 17.7758 36.1222 19.1533ZM44.9677 28.6634C44.7034 28.6634 44.4402 28.6503 44.1824 28.6283C41.322 28.3739 38.8697 26.7704 37.4186 24.2643C40.3843 24.6043 43.373 23.7696 45.6828 21.8382C45.9329 21.6309 46.1731 21.4083 46.4078 21.1758C46.7226 20.861 47.0143 20.5309 47.2841 20.1887C50.4286 20.9762 53.108 23.1302 54.3638 24.2785C52.8086 25.6978 49.0708 28.6634 44.9677 28.6634Z" fill="#C4174F"/>
</g>
</g>
</g>
</g>
<defs>
<clipPath id="clip0_1475_10420">
<rect width="68" height="68" fill="white" transform="translate(0 0.5)"/>
</clipPath>
</defs>
</svg>
